<svg width="24" height="24" viewBox="0 0 24 24" fill="none" xmlns="http://www.w3.org/2000/svg">
<path fill-rule="evenodd" clip-rule="evenodd" d="M12 24C18.6274 24 24 18.6274 24 12C24 5.37256 18.6274 0 12 0C5.37256 0 0 5.37256 0 12C0 18.6274 5.37256 24 12 24ZM18.7896 13.1978L13.2046 13.1982L13.2051 18.7832C13.2056 19.4453 12.6694 19.9814 12.0068 19.9814C11.3447 19.9814 10.8076 19.4443 10.8086 18.7832V13.1982L5.20996 13.1987C4.54785 13.1987 4.01123 12.6621 4.01123 12C4.01074 11.3384 4.54736 10.8018 5.20947 10.8018H10.8081L10.8086 5.2168C10.8081 4.79785 11.0229 4.4292 11.3486 4.21484C11.5376 4.09033 11.7637 4.01807 12.0068 4.01807C12.6685 4.01758 13.2056 4.55469 13.2051 5.21631L13.2046 10.8013H18.7896C19.4517 10.8008 19.9878 11.3369 19.9878 11.9995C19.9883 12.6616 19.4517 13.1982 18.7896 13.1978Z" fill="black"/>
</svg>
